<?xml version="1.0" standalone="no"?>
<!DOCTYPE svg PUBLIC "-//W3C//DTD SVG 20010904//EN"
 "http://www.w3.org/TR/2001/REC-SVG-20010904/DTD/svg10.dtd">
<svg version="1.0" xmlns="http://www.w3.org/2000/svg"
 width="780.000000pt" height="780.000000pt" viewBox="0 0 780.000000 780.000000"
 preserveAspectRatio="xMidYMid meet">
<metadata>
Created by potrace 1.14, written by Peter Selinger 2001-2017
</metadata>
<g transform="translate(0.000000,780.000000) scale(0.100000,-0.100000)"
fill="#000000" stroke="none">
<path d="M3659 7796 c-2 -2 -44 -6 -94 -10 -96 -6 -166 -14 -203 -22 -12 -2
-44 -7 -70 -10 -37 -4 -243 -45 -344 -69 -40 -9 -170 -47 -253 -74 -530 -171
-1056 -480 -1454 -856 -106 -101 -129 -123 -201 -202 -104 -112 -121 -132
-212 -248 -327 -417 -565 -897 -699 -1405 -47 -180 -77 -330 -95 -480 -3 -25
-7 -56 -10 -70 -26 -152 -26 -776 1 -904 2 -12 7 -43 10 -71 8 -75 22 -159 51
-304 22 -111 120 -447 153 -526 168 -403 260 -581 424 -825 200 -296 531 -659
767 -840 25 -19 47 -37 50 -40 3 -4 37 -30 75 -58 39 -28 75 -55 80 -60 26
-21 171 -115 265 -172 128 -77 378 -202 520 -260 58 -23 114 -46 125 -51 62
-27 403 -128 488 -145 12 -2 67 -13 122 -24 55 -11 116 -22 135 -24 19 -3 51
-8 71 -11 218 -36 809 -42 989 -10 14 2 51 7 82 9 73 7 294 50 423 82 338 84
706 235 1020 419 108 63 368 237 395 265 3 3 39 32 80 65 573 457 1021 1103
1255 1810 32 98 91 308 99 353 4 20 19 95 21 102 10 40 19 90 30 170 3 25 8
56 10 70 5 25 9 67 25 230 8 86 6 618 -3 655 -3 11 -8 54 -12 95 -4 41 -9 84
-11 95 -2 11 -7 40 -10 65 -3 25 -12 75 -20 112 -7 37 -16 82 -19 100 -9 55
-72 287 -104 383 -82 250 -178 471 -308 703 -56 100 -194 321 -223 355 -5 6
-41 53 -78 102 -38 50 -80 104 -94 120 -14 17 -45 53 -68 80 -140 166 -400
407 -595 553 -38 28 -76 56 -82 62 -17 14 -231 153 -268 174 -321 182 -575
294 -868 382 -168 50 -409 105 -524 119 -26 3 -57 8 -68 10 -11 2 -49 7 -85
10 -36 4 -76 9 -90 12 -31 6 -595 15 -601 9z"/>
</g>
</svg>
